<svg width="46" height="46" fill="none" xmlns="http://www.w3.org/2000/svg"><path d="M10.076 24.363c0-2.5 0-3.751.505-4.85.506-1.1 1.455-1.913 3.354-3.54l1.842-1.58c3.432-2.941 5.148-4.412 7.192-4.412 2.044 0 3.76 1.47 7.192 4.412l1.842 1.58c1.899 1.627 2.848 2.44 3.354 3.54.505 1.099.505 2.35.505 4.85v7.81c0 3.473 0 5.21-1.079 6.289-1.079 1.079-2.815 1.079-6.288 1.079H17.443c-3.473 0-5.21 0-6.288-1.08-1.08-1.078-1.08-2.815-1.08-6.288v-7.81Z" stroke="#898989" stroke-width="2.624"/><path d="M27.574 39.54v-9.209a1.842 1.842 0 0 0-1.842-1.842h-5.526a1.842 1.842 0 0 0-1.842 1.842v9.21" stroke="#898989" stroke-width="2.624" stroke-linecap="round" stroke-linejoin="round"/></svg>