<svg xmlns="http://www.w3.org/2000/svg" width="67" height="65" fill="none"><path fill="#fff" d="M79.997 39.291h-2.564v-1.389c0-4.178.023-8.359-.008-12.537-.026-3.49-2.543-6.26-5.93-6.475.047.21.055.407.13.57 1.617 3.613 2.053 7.34 1.181 11.217-.73 3.244-.701 6.496-.023 9.753.895 4.288.794 8.64.776 12.987-.01 2.474.01 4.946-.005 7.42-.016 2.494-1.597 4.078-4.096 4.096-2.347.018-4.694.007-7.04.002-3.039-.007-4.793-2.034-4.254-5.01.243-1.33.679-2.627 1.014-3.94.624-2.45-.266-4.602-1.385-6.703-.075-.14-.211-.291-.356-.35-2.84-1.154-4.81-3.183-6.06-6.043-3.702 1.583-7.545 1.698-11.478 1.545-.216 2.172-.369 4.24-.637 6.294-.49 3.75-1.019 7.496-1.591 11.237-.227 1.492-1.602 2.766-3.198 2.909-1.094.097-2.213-.136-3.322-.128-1.137.005-2.275.172-3.415.182-3.012.023-4.444-1.459-4.485-4.48-.033-2.467-.062-4.94-.255-7.397-.078-.985-.5-1.973-.916-2.894-.892-1.97-1.431-4.001-1.398-6.166.018-1.115-.307-1.954-1.26-2.724-3.044-2.457-4.612-5.716-4.973-9.595-.176-1.886-.91-3.605-2.138-5.25-.885.57-1.736 1.116-2.585 1.668-2.409 1.563-4.699 1.354-6.76-.64-.582-.565-1.18-1.125-1.689-1.755C-.067 24.02-.425 22.13.565 20.207 2.167 17.1 2.97 13.77 3.57 10.377c.062-.353-.222-.877-.508-1.159C1.45 7.632.485 5.744.122 3.531-.224 1.433.41.678 2.536 1.029c1.589.263 3.146.77 4.68 1.274.6.194.996.327 1.602-.082C11.493.42 14.91.525 17.451 2.523c.724.568 1.256.563 2.03.233 2.542-1.08 4.884-.366 7.046 1.044.348.227.495 1.028.438 1.532-.072.65-.444 1.264-.725 1.998 3.32 0 6.144 1.42 9.05 2.508 3.934 1.47 7.934 1.478 12.04 1.013 3.86-.44 7.706-1.33 11.644-.722 3.451.533 6.507 1.883 8.976 4.33.974.966 2.011 1.442 3.334 1.634 3.998.578 6.977 2.502 8.269 6.489.222.68.415 1.404.42 2.11.042 4.818.024 9.636.024 14.6Zm-57.23-6.069c3.319 2.638 5.016 5.171 5.43 9.101.318 2.996.829 5.867 2.139 8.592.25.522.39 1.14.415 1.722.114 2.635.132 5.275.276 7.91.031.56.284 1.336.702 1.612 1.434.942 3.363.1 3.572-1.558a850.023 850.023 0 0 0 1.9-16.344c.215-2.018.227-4.06.333-6.089h2.51v3.92c2.48-.207 4.877-.276 7.224-.637 2.937-.45 5.45-1.92 7.843-3.639 3.182-2.29 7.469-.501 8.08 3.322.108.67-.049 1.412.173 2.026.72 1.988 1.46 3.978 2.378 5.88 1.21 2.51 1.718 5.07 1.099 7.795-.263 1.157-.72 2.272-.96 3.431-.302 1.461.26 2.088 1.736 2.116.56.01 1.117-.01 1.676.005 1.197.03 1.708-.558 1.697-1.722-.02-2.302.075-4.608-.023-6.908a381.038 381.038 0 0 0-.766-12.728c-.041-.535-.567-1.19-1.057-1.507-2.866-1.863-4.439-4.442-4.596-7.835-.052-1.14-.41-2.082-1.352-2.755-2.3-1.648-2.78-3.915-2.43-6.555.377-2.837 1.43-5.39 3.093-7.78-4.22-2.677-8.676-2.293-13.017-1.528.674 2.083 1.489 4.086 1.948 6.169.629 2.847-.622 5.378-2.966 6.629-2.33 1.243-4.903.85-7.075-1.185-2.416-2.264-5.207-3.822-8.38-4.805-2.934-.908-4.76-2.93-5.418-5.938-.217-.995-.374-2.006-.627-2.991-.082-.325-.36-.829-.59-.852-1.409-.143-2.845-.606-4.16.473-1.548 1.27-3.356 1.906-5.42 1.87V9.992c2.905-.332 5.02-1.64 5.961-4.526-1.532-.954-3.02-.831-4.426.01-1.263.758-2.249.714-3.257-.442-.864-.99-2.058-1.436-3.56-1.44 0 1.169.137 2.294-.038 3.369-.18 1.115-.665 2.182-1.014 3.275-.064.202-.12.41-.146.619-.542 4.211-1.788 5.547-5.992 6.125-1.037.143-1.37.606-1.457 1.535C6.97 19.86 8.74 22.073 9.72 24.575c4.428-1.047 8.083-2.932 9.723-7.425.83.317 1.563.594 2.414.918-1.313 3.508-3.714 5.864-6.613 7.364.634 2.144 1.41 4.09 1.754 6.112.366 2.144.923 4.153 2.246 5.885 1.53 1.998 3.459 3.444 6.175 4.045-.63-2.758-2.255-4.623-4.197-6.269.57-.729 1.037-1.328 1.545-1.983Zm8.368-22.138c.34 4.173 1.344 5.452 5.205 6.744 2.922.977 5.501 2.535 7.776 4.6.503.458 1.011.967 1.612 1.249 2.208 1.036 4.599-.591 4.617-3.099.015-2.297-1.011-4.255-2.05-6.222-.362-.683-.669-1.005-1.525-.89-3.335.44-6.677.47-9.94-.481-1.916-.556-3.789-1.26-5.695-1.901Zm34.867 5.073c-1.756 2.303-2.556 4.797-2.752 7.52-.092 1.287.318 2.33 1.383 3.103 1.674 1.215 2.432 2.85 2.507 4.91.07 1.909.797 3.57 2.36 4.805.265-2.216.588-4.342.76-6.478.153-1.886.367-3.813.145-5.673-.384-3.2-1.932-5.902-4.403-8.187ZM23.26 43.631c.033.703-.039 1.317.11 1.872.352 1.305.671 2.648 1.247 3.861 1.635 3.442 1.152 7.087 1.217 10.68.039 2.205.505 2.607 2.592 2.208 0-2.357.085-4.698-.034-7.029-.07-1.381-.353-2.778-.74-4.111-.655-2.262-1.467-4.48-2.28-6.921-.433-.113-1.21-.32-2.112-.56Zm38.212 3.308c-.281-1.804-.583-3.503-.805-5.212-.26-2.026-2.249-2.996-3.987-1.89-.756.48-1.527.956-2.203 1.537-.263.225-.482.803-.376 1.103.957 2.755 4.467 4.802 7.37 4.462ZM63 62.31c.373-1.824.618-3.561 1.1-5.234.589-2.047.56-4.005-.265-5.957-.8-1.893-.828-1.908-2.894-1.328.84 1.945 1.27 3.971.903 6.07-.225 1.284-.67 2.53-.97 3.804-.552 2.338.041 2.952 2.125 2.645ZM10.538 4.536c-.142-.035-.284-.074-.426-.11-3.077 2.561-4.209 6.026-4.606 9.879 2.398-.054 3.386-1.057 3.6-3.31.096-.996.511-1.96.733-2.948.26-1.164.47-2.339.699-3.51ZM3.173 20.865c-.805 1.54-.748 2.377.405 3.485 1.052 1.01 1.87 2.614 3.889 1.977-.652-2.533-2.056-4.3-4.294-5.462ZM3.02 3.628l-.312.363c.588 1.05 1.173 2.1 1.87 3.344l1.725-2.768c-1.168-.333-2.226-.637-3.283-.939Z"/><path fill="#fff" d="M34.937 35.507c-2.847.095-5.181-.951-6.969-3.15-1.114-1.368-2.491-2.264-4.206-2.762-2.182-.635-3.397-2.602-3.054-4.695.34-2.08 2.094-3.49 4.416-3.454 3.677.053 6.986 1.202 9.82 3.538 1.252 1.031 2.37 2.216 3.547 3.336 1.39 1.328 1.994 2.91 1.207 4.731-.779 1.801-2.293 2.548-4.245 2.459-.17-.01-.343-.005-.516-.003Zm-.039-2.556c.13 0 .258-.005.387 0 .854.049 1.831-.005 1.986-.951.098-.6-.328-1.42-.763-1.937-.88-1.037-1.883-1.98-2.915-2.876-2.378-2.06-5.192-3.063-8.33-3.196-1.027-.043-1.81.343-1.96 1.407-.142 1.014.513 1.553 1.434 1.814 2.125.607 3.853 1.779 5.222 3.508 1.246 1.587 2.915 2.313 4.94 2.231Z"/></svg>