<svg xmlns="http://www.w3.org/2000/svg" width="67" height="65" fill="none"><path fill="#fff" d="M-16.996 39.291h2.692v-1.389c0-4.178-.024-8.359.008-12.537.027-3.49 2.67-6.26 6.226-6.475-.049.21-.057.407-.136.57-1.697 3.613-2.155 7.34-1.24 11.217.767 3.244.737 6.496.025 9.753-.94 4.288-.835 8.64-.816 12.987.011 2.474-.01 4.946.006 7.42.016 2.494 1.676 4.078 4.3 4.096 2.465.018 4.929.007 7.393.002 3.19-.007 5.032-2.034 4.466-5.01-.255-1.33-.712-2.627-1.064-3.94-.656-2.45.279-4.602 1.454-6.703a.818.818 0 0 1 .374-.35c2.981-1.154 5.05-3.183 6.364-6.043 3.886 1.583 7.92 1.698 12.05 1.545.228 2.172.388 4.24.67 6.294.514 3.75 1.069 7.496 1.67 11.237.238 1.492 1.682 2.766 3.358 2.909 1.148.097 2.324-.136 3.488-.128 1.194.005 2.389.172 3.585.182 3.163.023 4.666-1.459 4.71-4.48.035-2.467.065-4.94.268-7.397.081-.985.525-1.973.961-2.894.937-1.97 1.503-4.001 1.468-6.166-.019-1.115.322-1.954 1.324-2.724 3.196-2.457 4.842-5.716 5.221-9.595.185-1.886.956-3.605 2.245-5.25.93.57 1.823 1.116 2.714 1.668 2.53 1.563 4.934 1.354 7.098-.64.612-.565 1.24-1.125 1.773-1.755 1.411-1.675 1.788-3.566.748-5.488-1.682-3.108-2.524-6.437-3.155-9.83-.065-.353.233-.877.533-1.159 1.693-1.586 2.706-3.474 3.088-5.687.363-2.098-.304-2.853-2.535-2.502-1.668.263-3.304.77-4.915 1.274-.628.194-1.046.327-1.682-.082-2.808-1.801-6.396-1.696-9.064.302-.76.568-1.319.563-2.131.233-2.67-1.08-5.13-.366-7.398 1.044-.366.227-.52 1.028-.46 1.532.075.65.465 1.264.76 1.998-3.485 0-6.45 1.42-9.502 2.508-4.13 1.47-8.33 1.478-12.642 1.013-4.054-.44-8.091-1.33-12.226-.722-3.624.533-6.833 1.883-9.425 4.33-1.023.966-2.112 1.442-3.501 1.634-4.198.578-7.325 2.502-8.682 6.489-.233.68-.436 1.404-.441 2.11-.044 4.818-.025 9.636-.025 14.6Zm60.092-6.069c-3.485 2.638-5.267 5.171-5.703 9.101-.333 2.996-.87 5.867-2.245 8.592a4.376 4.376 0 0 0-.436 1.722c-.12 2.635-.138 5.275-.29 7.91-.032.56-.298 1.336-.737 1.612-1.505.942-3.53.1-3.75-1.558a811.101 811.101 0 0 1-1.996-16.344c-.225-2.018-.238-4.06-.35-6.089h-2.634v3.92c-2.605-.207-5.121-.276-7.586-.637-3.084-.45-5.722-1.92-8.235-3.639-3.342-2.29-7.842-.501-8.484 3.322-.114.67.051 1.412-.182 2.026-.755 1.988-1.532 3.978-2.496 5.88-1.27 2.51-1.804 5.07-1.154 7.795.276 1.157.755 2.272 1.007 3.431.317 1.461-.273 2.088-1.822 2.116-.588.01-1.173-.01-1.76.005-1.257.03-1.793-.558-1.782-1.722.021-2.302-.079-4.608.024-6.908.192-4.247.463-8.491.804-12.728.044-.535.596-1.19 1.11-1.507 3.01-1.863 4.661-4.442 4.826-7.835.055-1.14.431-2.082 1.42-2.755 2.415-1.648 2.919-3.915 2.55-6.555-.395-2.837-1.5-5.39-3.247-7.78 4.43-2.677 9.11-2.293 13.668-1.528-.707 2.083-1.563 4.086-2.045 6.169-.66 2.847.653 5.378 3.115 6.629 2.445 1.243 5.148.85 7.428-1.185 2.537-2.264 5.467-3.822 8.798-4.805 3.082-.908 5-2.93 5.69-5.938.228-.995.393-2.006.658-2.991.087-.325.38-.829.62-.852 1.479-.143 2.987-.606 4.368.473 1.625 1.27 3.524 1.906 5.69 1.87V9.992c-3.05-.332-5.27-1.64-6.258-4.526 1.608-.954 3.17-.831 4.647.01 1.327.758 2.361.714 3.42-.442.907-.99 2.161-1.436 3.737-1.44 0 1.169-.144 2.294.04 3.369.19 1.115.7 2.182 1.065 3.275.068.202.127.41.154.619.569 4.211 1.877 5.547 6.291 6.125 1.089.143 1.438.606 1.53 1.535-2.881 1.343-4.739 3.557-5.768 6.059-4.65-1.047-8.487-2.932-10.21-7.425-.871.317-1.64.594-2.534.918 1.378 3.508 3.9 5.864 6.943 7.364-.666 2.144-1.481 4.09-1.841 6.112-.385 2.144-.97 4.153-2.359 5.885-1.606 1.998-3.631 3.444-6.483 4.045.66-2.758 2.367-4.623 4.406-6.269-.598-.729-1.089-1.328-1.622-1.983Zm-8.788-22.138c-.357 4.173-1.41 5.452-5.465 6.744-3.068.977-5.776 2.535-8.164 4.6-.528.458-1.062.967-1.693 1.249-2.318 1.036-4.828-.591-4.847-3.099-.017-2.297 1.061-4.255 2.153-6.222.379-.683.701-1.005 1.6-.89 3.502.44 7.011.47 10.437-.481 2.012-.556 3.978-1.26 5.98-1.901Zm-36.61 5.073c1.844 2.303 2.684 4.797 2.89 7.52.097 1.287-.334 2.33-1.452 3.103-1.758 1.215-2.554 2.85-2.632 4.91-.073 1.909-.837 3.57-2.478 4.805-.279-2.216-.618-4.342-.799-6.478-.16-1.886-.385-3.813-.152-5.673.404-3.2 2.029-5.902 4.623-8.187Zm44.88 27.474c-.035.703.041 1.317-.116 1.872-.368 1.305-.704 2.648-1.308 3.861-1.717 3.442-1.21 7.087-1.278 10.68-.04 2.205-.53 2.607-2.721 2.208 0-2.357-.09-4.698.035-7.029.073-1.381.37-2.778.777-4.111.688-2.262 1.54-4.48 2.394-6.921.455-.113 1.27-.32 2.218-.56ZM2.457 46.939c.295-1.804.612-3.503.845-5.212.274-2.026 2.361-2.996 4.187-1.89.793.48 1.603.956 2.312 1.537.277.225.507.803.396 1.103-1.005 2.755-4.69 4.802-7.74 4.462ZM.85 62.31C.458 60.486.2 58.75-.306 57.076c-.618-2.047-.588-4.005.279-5.957.84-1.893.87-1.908 3.038-1.328-.883 1.945-1.332 3.971-.948 6.07.236 1.284.705 2.53 1.019 3.804.58 2.338-.044 2.952-2.232 2.645ZM55.935 4.536c.149-.035.298-.074.447-.11 3.23 2.561 4.42 6.026 4.836 9.879-2.518-.054-3.555-1.057-3.78-3.31-.1-.996-.536-1.96-.77-2.948-.273-1.164-.492-2.339-.733-3.51Zm7.734 16.329c.845 1.54.785 2.377-.425 3.485-1.105 1.01-1.963 2.614-4.084 1.977.685-2.533 2.159-4.3 4.51-5.462Zm.16-17.237.327.363-1.963 3.344-1.811-2.768 3.447-.939Z"/><path fill="#fff" d="M30.317 35.507c2.99.095 5.44-.951 7.317-3.15 1.17-1.368 2.616-2.264 4.417-2.762 2.29-.635 3.566-2.602 3.206-4.695-.357-2.08-2.199-3.49-4.636-3.454-3.862.053-7.336 1.202-10.312 3.538-1.314 1.031-2.49 2.216-3.724 3.336-1.46 1.328-2.093 2.91-1.267 4.731.817 1.801 2.407 2.548 4.457 2.459.179-.01.36-.005.542-.003Zm.04-2.556c-.135 0-.27-.005-.406 0-.896.049-1.923-.005-2.085-.951-.103-.6.344-1.42.802-1.937.923-1.037 1.976-1.98 3.06-2.876 2.496-2.06 5.45-3.063 8.747-3.196 1.077-.043 1.9.343 2.058 1.407.149 1.014-.54 1.553-1.506 1.814-2.231.607-4.046 1.779-5.484 3.508-1.308 1.587-3.06 2.313-5.186 2.231Z"/></svg>