<svg xmlns="http://www.w3.org/2000/svg" width="116" height="102" fill="none"><path fill="#fff" d="M50.93 24.707c2.424 3.884 4.819 7.727 7.22 11.569.79 1.268 1.334 3.072 2.478 3.631 1.115.547 2.855-.147 4.313-.356 2.823-.403 5.643-.848 8.632-1.297-.78-2.906-1.597-5.743-2.274-8.616-.188-.806-.178-1.798.129-2.544.288-.704 1.083-1.197 1.854-1.986-.53-1.978-1.135-4.224-1.734-6.472-.341-1.274.867-3.841 2.087-4.231.378-.121 1.06.004 1.279.278.264.332.415 1.212.213 1.387-1.812 1.562-.843 3.288-.404 4.988.31 1.197.638 2.392.95 3.558 3.019.603 3.879 1.504 4.132 4.572.038.449-.456 1.22-.858 1.345-.37.116-1.158-.319-1.39-.724-.422-.738-.571-1.634-.85-2.507l-3.096.83 2.603 9.716a893 893 0 0 1 3.15-.52c-.058-.41-.08-.668-.134-.92-.19-.893-.67-1.957.658-2.304 1.414-.37 1.486.857 1.762 1.766.1.33.222.655.357 1.058 2.522-.363 4.99-.763 7.47-1.06 2.222-.266 3.64.717 4.228 2.863 1.02 3.712 1.978 7.44 3.022 11.145.152.534.53 1.14.982 1.426 7.31 4.627 9.143 13.136 4.344 20.34-.118.18-.224.368-.54.883.923 2.305 3.87 1.955 5.141 1.581.818-.238 3.044-.264 3.315.663.29.993-1.658.62-2.531.844-1.11.28-3.776-.296-4.881 0-31.215 5.002-49.344 12.376-74.21 19.033-.95.254-2.034 2.034-2.412.564-.36-1.408 1.185-1.703 2.078-1.947 2.911-.797 5.484-2.51 8.397-3.29-.033-.156-.07-.312-.103-.467-.495.132-1.085.14-1.468.423-.873.646-1.715.616-2.582.13-1.617-.908-3.252-1.79-4.79-2.82-.517-.348-1.066-1.102-1.076-1.679-.03-2.021-.935-3.143-2.827-3.76-.594-.195-1.212-.938-1.43-1.566a38.761 38.761 0 0 1-1.439-5.38c-.122-.642.106-1.536.507-2.063 1.154-1.523 1.227-2.795.587-4.568-.325-.899.065-2.055.132-3.092l.385-.046c-.4-.247-.798-.497-1.2-.74-1.739-1.045-2.033-2.153-.81-3.81.99-1.342 2.185-2.53 3.215-3.841.302-.386.592-1.03.482-1.45-1.886-7.234-3.834-14.451-5.793-21.764-.275.005-.517.012-.76.011-2.164-.005-3.314-1.18-3.64-3.713-.215-1.672.703-2.882 2.616-3.395 10.65-2.862 21.294-5.711 31.937-8.56 2.101-.563 3.459-.092 4.174 1.433 1.042 2.223.69 3.81-1.123 5.101-.136.097-.268.198-.473.35ZM26.426 54.33c7.197-4.293 14.63-5.076 22.212-1.415 7.578 3.657 11.617 9.977 12.767 18.292l15.864-4.25c-1.134-5.121-.007-9.636 3.614-13.344 3.616-3.704 8.137-4.737 13.167-3.838l-1.017-3.795-1.456.39-23.368 6.261c-4.073 1.091-6.61-.388-7.736-4.51-.44-1.612-.865-3.229-1.341-5.007l-3.312.887-11.11 2.975c-.825.22-1.586.098-1.813-.8-.216-.86.318-1.409 1.152-1.635l1.15-.308 12.705-3.404c-.151-.358-.23-.653-.384-.9-2.907-4.672-5.833-9.332-8.724-14.011-.397-.644-.827-.586-1.427-.425-5.146 1.398-10.299 2.767-15.45 4.153-.33.088-.65.207-1.021.326l4.525 16.889c.922-.248 1.763-.624 2.614-.643.512-.01 1.035.533 1.553.83-.296.511-.531 1.074-.913 1.508-.195.223-.653.217-.993.308-3.49.935-6.982 1.868-10.47 2.808-.453.121-.893.283-1.38.438.21.793.389 1.462.592 2.22Zm18.977 33.23-.13-.276c.422-.668.747-1.436 1.293-1.984.735-.74 1.628-1.328 2.477-1.949.312-.226.752-.566 1.033-.488 1.369.38 1.74-.584 2.218-1.473.4-.739.866-1.438 1.237-2.188.131-.266.207-.709.076-.932-1.237-2.083-.485-4.27.32-6.018.555-1.206.717-2.049.364-3.184-.406-1.311-.323-2.962-2.293-3.124-.14-.012-.322-.19-.39-.334-.801-1.68-3.017-2.598-2.647-4.913.018-.106-.064-.29-.156-.346-1.244-.751-2.466-1.563-3.776-2.173-.344-.16-.976.338-1.487.505-.247.08-.557.19-.77.11-1.74-.665-3.988.303-5.327-1.662-.054-.076-.27-.125-.356-.08-1.669.87-4.331-.109-4.986 2.684-.062.261-.366.496-.603.684-.86.678-1.73 1.347-2.621 1.982-.31.22-.76.544-1.043.46-1.329-.393-1.657.565-2.12 1.403-.405.735-.88 1.433-1.223 2.196-.146.324-.164.829-.016 1.146.976 2.07.484 4.29-.479 5.893-.751 1.25-.637 2.066-.35 3.15.355 1.333.359 2.928 2.301 3.141.274.031.533.437.75.708a51.422 51.422 0 0 1 1.765 2.304c.25.35.645.835.561 1.146-.367 1.364.567 1.748 1.455 2.23.736.399 1.433.876 2.187 1.237.289.14.753.189 1.02.051 2.097-1.092 4.299-.493 5.99.457 1.192.67 1.983.64 3.045.363.898-.244 1.788-.487 2.681-.727Zm34.306-21.23c1.636 6.158 7.968 9.883 14.05 8.264 6.017-1.601 9.775-8.175 8.112-14.186-1.657-5.99-7.982-9.67-13.933-8.103-6.186 1.632-9.858 7.892-8.229 14.025ZM49.633 85.924l.133.343 36.054-9.66c-4.18-2.23-5.488-3.443-7.65-7.05-.117.002-.254-.027-.374.005-7.105 1.896-14.208 3.793-21.31 5.702-1.047.28-1.196.878-.53 1.737.666.863.687 1.788.152 2.725-.875 1.534-1.745 3.066-2.64 4.588-.53.903-1.266 1.383-2.393 1.254-.463-.055-.96.227-1.442.356Zm11.923-43.33c.466 1.74.982 3.3 1.29 4.898.56 2.909 2.732 3.362 4.812 2.791 7.775-2.144 15.574-4.198 23.367-6.286l1.458-.39c-.391-1.461-.761-2.73-1.067-4.015-.253-1.067-.837-1.43-1.925-1.248-3.34.555-6.689 1.06-10.034 1.566-5.913.895-11.824 1.773-17.901 2.684Zm-40.88-9.874 4.492 16.766 7.762-2.08-4.492-16.766-7.763 2.08Zm2.915 30.184c.357-.585.578-1.22 1.017-1.605.557-.487 1.26-1.016 1.949-1.093 1.546-.173 2.846-1.197 3.465-2.684.281-.676 1.012-1.372 1.697-1.624a28.745 28.745 0 0 1 5.096-1.366c.723-.122 1.704.118 2.285.56 1.274.977 2.893 1.195 4.342.59.67-.282 1.677-.258 2.34.048a28.956 28.956 0 0 1 4.571 2.65c.595.423 1.122 1.287 1.214 2.01.2 1.563 1.18 2.9 2.68 3.47.596.224 1.313.776 1.496 1.337.741 2.287 1.294 4.635 1.923 6.985l1.178-.316c-.385-8.726-7.022-16.255-15.31-18.184-8.185-1.904-17.514 1.774-21.191 8.447.395.248.792.493 1.248.775Zm10.066-36.36c5.193-1.39 10.387-2.782 15.58-4.174.71-.19 1.506-.211 1.18-1.407-.3-1.1-.9-.942-1.695-.729-10.383 2.796-20.77 5.58-31.161 8.35-.804.215-1.38.389-1.085 1.485.29 1.076.886.847 1.599.657 5.193-1.403 10.388-2.79 15.582-4.181Z"/><path fill="#fff" d="M73.684 61.354c.24.897.514 1.785.71 2.69.173.791.099 1.515-.87 1.769-.908.237-1.334-.302-1.546-1.039a195.193 195.193 0 0 1-1.477-5.506c-.192-.753-.063-1.439.809-1.689.942-.271 1.4.295 1.645 1.086.274.888.489 1.792.729 2.689ZM65.293 63.693c.24.897.505 1.79.714 2.695.179.768.03 1.409-.843 1.665-.892.264-1.377-.246-1.591-.977-.55-1.866-1.054-3.75-1.512-5.64-.183-.755.046-1.434.927-1.627.866-.19 1.323.3 1.544 1.064.273.935.51 1.88.761 2.82ZM69.397 62.442c.254.937.508 1.874.754 2.814.203.777.083 1.424-.795 1.668-.851.236-1.338-.171-1.555-.981l-1.509-5.63c-.219-.817.021-1.535.87-1.567.479-.019 1.209.459 1.427.905.421.857.554 1.854.808 2.791ZM36.48 62.894c5.552-1.331 11.126 2.015 12.433 7.465 1.333 5.555-2.002 11.17-7.41 12.473-5.512 1.329-11.16-2.06-12.452-7.475-1.328-5.56 2.014-11.166 7.43-12.463Zm.495 2.498c-4.172 1.121-6.562 5.263-5.453 9.443 1.11 4.17 5.26 6.61 9.42 5.528 4.215-1.094 6.618-5.289 5.468-9.542-1.133-4.195-5.239-6.558-9.435-5.428ZM83.003 65.462c-.947-3.605.553-7.212 3.764-9.056a8.073 8.073 0 0 1 9.648 1.222c.22.215.555.444.584.697.066.543.179 1.35-.113 1.599-.328.28-1.133.215-1.624.026-.498-.194-.834-.771-1.299-1.097-2.724-1.904-6.338-1.114-8.012 1.73-1.699 2.883-.565 6.511 2.483 7.947 2.966 1.397 6.427-.025 7.603-3.122.327-.865.351-2.102 1.806-1.706.96.262 1.092 1.163.477 2.72-1.3 3.295-4.508 5.338-8.009 5.1-3.608-.249-6.387-2.55-7.308-6.06Z"/><path fill="#fff" d="M86.603 64.558c-.617-2.315.773-4.714 3.085-5.32 2.265-.593 4.803.9 5.334 3.138.525 2.213-.915 4.694-3.078 5.304-2.216.624-4.731-.847-5.341-3.123Zm5.918-1.548c-.255-1.014-1.224-1.597-2.214-1.329a1.812 1.812 0 0 0-1.284 2.267 1.8 1.8 0 0 0 2.161 1.244c1.06-.254 1.6-1.137 1.337-2.182ZM44.981 71.31c.874 3.364-1.098 6.73-4.437 7.577-3.366.856-6.7-1.124-7.555-4.481-.86-3.387 1.085-6.696 4.448-7.564 3.358-.87 6.666 1.09 7.544 4.469Zm-5.023 5.134c1.991-.537 3.14-2.498 2.632-4.496-.52-2.044-2.558-3.244-4.579-2.697a3.689 3.689 0 0 0-2.614 4.51c.534 2.084 2.496 3.239 4.561 2.683Z"/></svg>