<svg xmlns="http://www.w3.org/2000/svg" width="97" height="110" fill="none"><path fill="#fff" d="M46.319 29.727c-.351 4.565-.699 9.08-1.042 13.597-.114 1.49-.745 3.266-.156 4.394.575 1.101 2.388 1.574 3.686 2.269 2.512 1.349 5.048 2.661 7.721 4.07 1.095-2.802 2.118-5.572 3.275-8.287.326-.76.922-1.553 1.611-1.973.649-.396 1.582-.322 2.67-.5.746-1.908 1.59-4.076 2.44-6.242.479-1.228 2.974-2.58 4.188-2.171.376.127.851.632.865.982.016.425-.384 1.222-.65 1.244-2.386.184-2.628 2.148-3.282 3.778-.46 1.148-.903 2.305-1.343 3.429 2.075 2.274 2.233 3.51.619 6.131-.235.384-1.09.713-1.488.575-.368-.126-.744-.943-.69-1.406.097-.845.507-1.655.8-2.523l-2.986-1.167-3.66 9.37c.954.483 1.878.952 2.845 1.447.196-.365.33-.586.437-.82.376-.833.62-1.974 1.895-1.467 1.36.54.69 1.57.373 2.467-.115.325-.209.659-.339 1.064 2.246 1.202 4.472 2.342 6.644 3.573 1.948 1.102 2.508 2.734 1.71 4.812-1.378 3.593-2.816 7.164-4.17 10.768-.195.519-.25 1.233-.055 1.73 3.146 8.059-.419 15.999-8.554 18.958-.202.075-.399.163-.959.391-.622 2.404 1.96 3.868 3.205 4.321.8.292 2.608 1.591 2.276 2.498-.354.972-1.702-.483-2.538-.821-1.06-.431-2.866-2.475-3.932-2.892-28.107-14.47-47.08-19.273-71.054-28.647-.916-.358-2.844.433-2.277-.974.544-1.348 1.964-.67 2.827-.338 2.818 1.084 5.905 1.228 8.714 2.326.066-.145.129-.291.194-.437-.478-.186-.957-.53-1.434-.529-1.085.003-1.746-.52-2.156-1.426-.765-1.689-1.558-3.369-2.187-5.11-.21-.586-.206-1.519.128-1.989 1.174-1.646 1.11-3.087-.05-4.704-.362-.51-.42-1.474-.223-2.11a38.762 38.762 0 0 1 2.03-5.185c.281-.59.995-1.174 1.63-1.362 1.833-.543 2.645-1.524 3.18-3.331.27-.917 1.27-1.617 1.94-2.413l.336.192c-.176-.436-.348-.874-.528-1.309-.78-1.871-.361-2.938 1.605-3.548 1.593-.494 3.26-.743 4.867-1.188.471-.132 1.086-.479 1.247-.883C9.291 31.417 12 24.449 14.755 17.397c-.224-.159-.423-.296-.62-.441-1.739-1.287-1.968-2.914-.73-5.147.818-1.475 2.275-1.906 4.119-1.185 10.275 4.006 20.536 8.019 30.797 12.03 2.027.793 2.841 1.977 2.514 3.629-.479 2.407-1.703 3.478-3.928 3.443-.167-.002-.333.001-.588.001Zm-37.295 9.34c8.34.807 14.793 4.581 18.73 12.024 3.937 7.436 3.445 14.92-.556 22.3l15.297 5.976c2.12-4.796 5.705-7.764 10.818-8.606 5.108-.84 9.362 1.006 12.88 4.711l1.43-3.66-1.403-.547-22.534-8.805c-3.927-1.535-5.093-4.23-3.558-8.217.601-1.56 1.217-3.114 1.887-4.828l-3.194-1.248c-3.57-1.395-7.141-2.794-10.712-4.189-.795-.31-1.335-.86-.986-1.718.335-.82 1.091-.946 1.897-.634l1.108.433 12.252 4.787c.09-.378.202-.662.224-.952.427-5.487.831-10.974 1.276-16.456.062-.753-.32-.962-.898-1.188-4.973-1.923-9.935-3.874-14.906-5.81-.317-.124-.646-.219-1.015-.343l-6.363 16.285c.888.348 1.788.543 2.486 1.032.418.294.518 1.042.758 1.589-.54.236-1.063.55-1.628.674-.29.064-.655-.213-.983-.341-3.365-1.315-6.73-2.633-10.098-3.943-.436-.17-.887-.301-1.37-.465-.301.763-.553 1.408-.84 2.14ZM4.618 77.08l.057-.3c.737-.287 1.454-.713 2.218-.83 1.03-.161 2.099-.106 3.15-.102.386.002.941-.011 1.121.219.878 1.117 1.748.56 2.66.128.76-.359 1.55-.645 2.293-1.03.263-.136.587-.448.613-.706.238-2.41 2.14-3.726 3.824-4.658 1.162-.642 1.793-1.224 2.181-2.349.45-1.296 1.495-2.577.004-3.874-.106-.093-.146-.345-.116-.502.35-1.828-.891-3.88.78-5.525.077-.075.12-.272.079-.37-.557-1.343-1.06-2.721-1.754-3.99-.182-.332-.987-.305-1.497-.473-.246-.082-.561-.177-.685-.368-1.009-1.567-3.392-2.12-3.307-4.496.002-.093-.142-.26-.238-.275-1.86-.288-3.425-2.654-5.608-.793-.204.174-.588.183-.89.193-1.096.037-2.192.061-3.286.044-.381-.007-.935-.013-1.113-.247-.837-1.105-1.67-.527-2.539-.127-.762.352-1.558.633-2.286 1.044-.31.175-.624.57-.693.914-.44 2.246-2.151 3.742-3.878 4.463-1.346.562-1.737 1.286-2.148 2.33-.504 1.284-1.447 2.57-.008 3.893.202.188.17.668.185 1.015.04.967.07 1.933.056 2.901-.007.43.025 1.055-.227 1.256-1.105.882-.58 1.745-.15 2.659.356.757.635 1.555 1.028 2.292.15.284.496.598.792.646 2.336.363 3.755 2.15 4.554 3.918.563 1.246 1.219 1.69 2.237 2.096.868.337 1.73.667 2.591 1.004Zm40.214 3.23c-2.332 5.93.561 12.683 6.42 14.983 5.794 2.276 12.717-.792 14.94-6.62 2.216-5.807-.698-12.52-6.42-14.784-5.95-2.35-12.619.516-14.94 6.421Zm-35.837-2.04-.096.355 34.766 13.584c-2.045-4.274-2.38-6.025-1.985-10.211-.095-.069-.188-.173-.303-.218-6.847-2.684-13.692-5.365-20.544-8.036-1.01-.395-1.484-.002-1.457 1.085.025 1.09-.506 1.847-1.492 2.285-1.614.717-3.223 1.435-4.846 2.131-.961.413-1.839.364-2.67-.408-.34-.318-.907-.386-1.373-.568Zm35.281-27.837c-.655 1.678-1.163 3.24-1.862 4.71-1.273 2.675.207 4.327 2.221 5.1 7.534 2.88 15.033 5.848 22.548 8.784l1.405.55c.55-1.409 1.005-2.65 1.52-3.867.428-1.009.172-1.647-.81-2.145-3.02-1.533-6.017-3.111-9.012-4.686-5.292-2.783-10.574-5.578-16.01-8.446ZM17.2 18.252 10.882 34.42l7.486 2.925 6.316-16.167-7.485-2.924ZM1.661 44.293c.634-.258 1.19-.64 1.77-.689.737-.062 1.618-.071 2.218.274 1.348.778 3 .723 4.381-.107.628-.379 1.628-.506 2.33-.304a28.73 28.73 0 0 1 4.914 1.92c.654.33 1.302 1.105 1.508 1.806.448 1.542 1.622 2.676 3.149 3.047.705.17 1.503.787 1.855 1.426a28.968 28.968 0 0 1 2.112 4.844c.229.693.141 1.701-.212 2.338-.766 1.378-.769 3.035.1 4.383.348.534.598 1.404.414 1.964-.758 2.281-1.705 4.5-2.59 6.766l1.135.443c4.862-7.256 3.978-17.254-1.556-23.72C17.725 42.3 8.03 39.733 1.115 42.93c.17.434.345.867.546 1.364Zm29.654-23.32 15.024 5.87c.685.267 1.339.722 1.785-.434.41-1.064-.168-1.293-.934-1.592-10.02-3.901-20.037-7.815-30.048-11.74-.776-.304-1.341-.505-1.754.553-.403 1.038.212 1.207.899 1.476 5.014 1.948 10.02 3.91 15.028 5.866Z"/><path fill="#fff" d="M42.928 72.73c-.337.865-.643 1.742-1.022 2.588-.33.74-.817 1.278-1.749.909-.872-.347-.896-1.034-.629-1.753a195.05 195.05 0 0 1 2.072-5.31c.293-.72.803-1.196 1.653-.881.92.34.953 1.067.682 1.85-.306.877-.669 1.732-1.007 2.597ZM34.784 69.642c-.338.865-.655 1.74-1.022 2.594-.311.724-.81 1.152-1.666.841-.875-.316-.963-1.014-.703-1.73a119.37 119.37 0 0 1 2.125-5.438c.3-.717.887-1.129 1.71-.762.811.36.889 1.025.614 1.772-.335.915-.704 1.816-1.058 2.723ZM38.83 71.066c-.35.906-.701 1.81-1.06 2.713-.297.747-.777 1.198-1.629.873-.825-.314-.976-.931-.67-1.712l2.12-5.428c.308-.788.927-1.224 1.63-.748.397.27.702 1.086.613 1.576-.169.94-.653 1.821-1.003 2.726ZM12.049 51.923c5.26 2.218 7.767 8.216 5.59 13.38-2.218 5.266-8.231 7.812-13.36 5.657-5.227-2.196-7.768-8.273-5.6-13.4 2.225-5.266 8.239-7.8 13.37-5.637Zm-1.083 2.306c-4.024-1.57-8.404.35-9.987 4.374-1.578 4.017.32 8.441 4.312 10.035 4.042 1.617 8.464-.338 10.058-4.446 1.574-4.05-.333-8.386-4.383-9.963ZM48 81.562c1.374-3.465 4.72-5.482 8.399-5.064a8.073 8.073 0 0 1 7.048 6.702c.049.303.183.686.057.907-.269.477-.657 1.194-1.04 1.22-.429.032-1.04-.497-1.323-.94-.286-.451-.214-1.115-.395-1.653-1.067-3.148-4.446-4.654-7.48-3.355-3.076 1.315-4.313 4.91-2.71 7.872 1.562 2.883 5.193 3.789 7.976 1.991.775-.503 1.528-1.485 2.465-.304.618.78.19 1.584-1.227 2.474-3.001 1.883-6.795 1.628-9.475-.637-2.758-2.34-3.632-5.84-2.294-9.213Z"/><path fill="#fff" d="M51.436 82.967c.874-2.23 3.416-3.34 5.637-2.457 2.177.864 3.336 3.57 2.438 5.688-.89 2.094-3.52 3.24-5.623 2.449-2.155-.811-3.31-3.486-2.452-5.68Zm5.684 2.26c.395-.967-.04-2.012-.996-2.383a1.813 1.813 0 0 0-2.377 1.065 1.8 1.8 0 0 0 1.004 2.284c1.003.423 1.962.032 2.37-.966ZM13.908 63.74c-1.289 3.228-4.872 4.77-8.063 3.474-3.22-1.306-4.73-4.875-3.43-8.087 1.313-3.238 4.841-4.75 8.065-3.456 3.22 1.29 4.723 4.828 3.428 8.07ZM6.82 64.898c1.922.748 4.01-.15 4.785-2.06.792-1.955-.138-4.13-2.09-4.887a3.689 3.689 0 0 0-4.779 2.083c-.805 1.995.092 4.089 2.084 4.864Z"/></svg>