<svg xmlns="http://www.w3.org/2000/svg" width="375" height="137" fill="none"><path stroke="#fff" stroke-width="3" d="M-37.973 125.82c30.53.86 104.23 16.512 154.798 72.239M-30.233 66.481c52.89 7.31 169.762 43.86 214.137 131.578M45.176 15.709c58.869 22.008 66.328 23.143 137.747 75.334m101.599 108.306a276.687 276.687 0 0 0-14.078-22.008m-44.28-50.738c36.693-27.316 133.228-73.49 182.763-61.106m-182.763 61.106c20.974 18.329 28.402 28.283 44.28 50.738m-44.28-50.738c-10.135-8.856-32.425-27.657-43.241-35.56m87.521 86.298c17.163-20.614 66.968-60.551 128.887-55.391M182.923 91.043C227.969 54.476 343.345-13.756 444.48 5.853"/></svg>